<svg width="40" height="40" viewBox="0 0 40 40" fill="none" xmlns="http://www.w3.org/2000/svg">
<rect width="40" height="40" rx="20" fill="#E2E8F8"/>
<path d="M15.0392 24.6482C14.2242 24.6482 13.5147 24.5229 12.9107 24.2724C12.3067 24.0219 11.836 23.651 11.4987 23.1597C11.1613 22.6683 10.982 22.0616 10.9607 21.3393H12.9914C13.018 21.6827 13.1202 21.9694 13.298 22.1993C13.4758 22.4292 13.7131 22.6015 14.0101 22.7161C14.307 22.8307 14.6427 22.888 15.017 22.888C15.3887 22.888 15.7131 22.8338 15.9901 22.7252C16.2671 22.6167 16.4826 22.4644 16.6365 22.2685C16.7904 22.0726 16.8673 21.8463 16.8673 21.5897C16.8673 21.3551 16.7984 21.1592 16.6606 21.0021C16.5228 20.845 16.3234 20.7103 16.0623 20.5978C15.8013 20.4853 15.4848 20.3851 15.1128 20.2971L13.9931 20.0187C13.131 19.8084 12.4554 19.4788 11.9665 19.0298C11.4775 18.5809 11.233 17.986 11.233 17.245C11.233 16.6314 11.3991 16.0945 11.7311 15.6343C12.0631 15.1741 12.5175 14.8163 13.0941 14.5609C13.6708 14.3055 14.3278 14.1777 15.0653 14.1777C15.8189 14.1777 16.4759 14.3067 17.0364 14.5646C17.5969 14.8225 18.0338 15.18 18.3471 15.6371C18.6604 16.0942 18.8224 16.6208 18.8333 17.217H16.8161C16.7765 16.8089 16.6017 16.4926 16.2916 16.2682C15.9814 16.0438 15.5664 15.9316 15.0464 15.9316C14.6926 15.9316 14.3905 15.9825 14.1401 16.0842C13.8896 16.1859 13.6991 16.3259 13.5685 16.5041C13.4379 16.6823 13.3726 16.8854 13.3726 17.1134C13.3726 17.363 13.4487 17.5702 13.6008 17.735C13.7529 17.8998 13.9534 18.034 14.2023 18.1375C14.4512 18.241 14.7184 18.327 15.0039 18.3954L15.9228 18.6203C16.3513 18.7178 16.7504 18.8488 17.1202 19.0133C17.49 19.1778 17.8136 19.3796 18.091 19.6186C18.3684 19.8576 18.5842 20.1406 18.7385 20.4677C18.8928 20.7948 18.97 21.1719 18.97 21.5991C18.97 22.2166 18.8142 22.7542 18.5027 23.2119C18.1911 23.6696 17.7424 24.0234 17.1565 24.2733C16.5707 24.5232 15.8649 24.6482 15.0392 24.6482ZM22.0113 22.197V20.2962C22.2191 19.9181 22.4239 19.5691 22.6258 19.2491C22.8276 18.9291 23.0487 18.6092 23.289 18.2894C23.5293 17.9696 23.8054 17.62 24.1172 17.2408L26.6091 14.3145H29.1603L24.8607 19.2904L24.6889 19.2281L22.0113 22.197ZM20.4692 24.5V14.3145H22.558V17.0994L22.5191 19.6924L22.558 20.7121V24.5H20.4692ZM26.8022 24.5L23.7821 19.9053L25.0982 18.3472L29.2668 24.5H26.8022Z" fill="#3D4A42"/>
</svg>
