<svg width="40" height="40" viewBox="0 0 40 40" fill="none" xmlns="http://www.w3.org/2000/svg">
<rect width="40" height="40" rx="20" fill="#E2E8F8"/>
<path d="M10.9873 24.5V14.3145H13.316L16.5319 19.4706C16.6955 19.7352 16.8621 20.0218 17.0318 20.3304C17.2015 20.639 17.3739 20.9824 17.549 21.3607C17.7241 21.7389 17.8995 22.1651 18.0751 22.6393H17.861C17.8298 22.2597 17.8008 21.8566 17.774 21.4299C17.7471 21.0033 17.7253 20.5934 17.7084 20.2003C17.6915 19.8072 17.6831 19.4751 17.6831 19.204V14.3145H19.8163V24.5H17.4813L14.5615 19.8254C14.3461 19.4728 14.1468 19.132 13.9636 18.8029C13.7804 18.4737 13.5899 18.1088 13.392 17.7081C13.1942 17.3074 12.9581 16.8297 12.6838 16.2752H12.9489C12.9791 16.7663 13.0076 17.2383 13.0344 17.6913C13.0612 18.1443 13.0828 18.5537 13.0991 18.9195C13.1155 19.2853 13.1236 19.5851 13.1236 19.8191V24.5H10.9873ZM21.6582 24.5V14.3145H25.6318C26.4051 14.3145 27.0629 14.4513 27.6051 14.7249C28.1473 14.9985 28.5611 15.384 28.8464 15.8813C29.1317 16.3787 29.2743 16.9612 29.2743 17.6288C29.2743 18.3014 29.1298 18.8799 28.8409 19.3645C28.5519 19.849 28.1325 20.2204 27.5827 20.4788C27.0329 20.7371 26.3664 20.8663 25.5833 20.8663H22.8923V19.1757H25.2523C25.6768 19.1757 26.0268 19.1174 26.3022 19.0008C26.5776 18.8842 26.7831 18.7113 26.9187 18.4823C27.0544 18.2532 27.1222 17.9687 27.1222 17.6288C27.1222 17.2847 27.0544 16.9948 26.9187 16.7591C26.7831 16.5233 26.5771 16.3438 26.3006 16.2206C26.0242 16.0973 25.6727 16.0356 25.246 16.0356H23.7471V24.5H21.6582ZM27.3252 24.5L24.8495 19.8651H27.1098L29.6413 24.5H27.3252Z" fill="#3D4A42"/>
</svg>
