<svg width="40" height="40" viewBox="0 0 40 40" fill="none" xmlns="http://www.w3.org/2000/svg">
<rect width="40" height="40" rx="20" fill="#E2E8F8"/>
<path d="M12.0131 24.5V14.3145H16.0581C16.8035 14.3145 17.4253 14.4271 17.9236 14.6525C18.4218 14.8778 18.7954 15.1871 19.0444 15.5802C19.2934 15.9733 19.4178 16.4232 19.4178 16.9297C19.4178 17.3328 19.3379 17.6835 19.178 17.9819C19.0182 18.2802 18.8007 18.5242 18.5256 18.7137C18.2505 18.9033 17.9378 19.0378 17.5874 19.1174V19.2205C17.9704 19.2362 18.3314 19.345 18.6703 19.5467C19.0091 19.7485 19.2845 20.0309 19.4965 20.3939C19.7084 20.7568 19.8143 21.1902 19.8143 21.6938C19.8143 22.2289 19.6828 22.7082 19.4198 23.1319C19.1568 23.5556 18.766 23.8895 18.2475 24.1337C17.729 24.3779 17.0859 24.5 16.3183 24.5H12.0131ZM14.1019 22.783H15.9039C16.5172 22.783 16.9642 22.6648 17.245 22.4284C17.5259 22.192 17.6663 21.881 17.6663 21.4956C17.6663 21.2079 17.5969 20.9532 17.4582 20.7313C17.3195 20.5094 17.1225 20.3352 16.8673 20.2088C16.6121 20.0824 16.3088 20.0192 15.9575 20.0192H14.1019V22.783ZM14.1019 18.5932H15.7461C16.0442 18.5932 16.3112 18.5399 16.5472 18.4332C16.7831 18.3266 16.9692 18.1742 17.1055 17.9762C17.2417 17.7781 17.3098 17.5418 17.3098 17.2672C17.3098 16.8965 17.1782 16.5954 16.9149 16.3639C16.6516 16.1324 16.2756 16.0166 15.7871 16.0166H14.1019V18.5932ZM20.0773 16.0462V14.3145H28.3948V16.0462H25.2836V24.5H23.1948V16.0462H20.0773Z" fill="#3D4A42"/>
</svg>
