<svg width="187" height="40" viewBox="0 0 187 40" fill="none" xmlns="http://www.w3.org/2000/svg">
<rect x="8" width="40" height="40" rx="8" fill="#059669"/>
<path d="M22.0488 26.6758C20.8917 26.6758 19.8514 26.4119 18.928 25.8842C18.0045 25.3564 17.275 24.5917 16.7395 23.5899C16.2039 22.5882 15.9362 21.3786 15.9362 19.9609C15.9362 18.5343 16.2039 17.3193 16.7395 16.316C17.275 15.3127 18.0045 14.5473 18.928 14.0198C19.8514 13.4923 20.8917 13.2285 22.0488 13.2285C23.2059 13.2285 24.2447 13.4923 25.1652 14.0198C26.0857 14.5473 26.8139 15.3127 27.3497 16.316C27.8855 17.3193 28.1533 18.5343 28.1533 19.9609C28.1533 21.3817 27.8855 22.593 27.3497 23.5947C26.8139 24.5964 26.0857 25.3604 25.1652 25.8865C24.2447 26.4127 23.2059 26.6758 22.0488 26.6758ZM22.0488 24.2935C22.7268 24.2935 23.3191 24.1274 23.8256 23.7952C24.332 23.463 24.7262 22.9741 25.0081 22.3286C25.29 21.6831 25.4309 20.8939 25.4309 19.9609C25.4309 19.0195 25.29 18.2252 25.0081 17.5781C24.7262 16.931 24.332 16.4413 23.8256 16.1091C23.3191 15.7769 22.7268 15.6108 22.0488 15.6108C21.3712 15.6108 20.7785 15.7775 20.2707 16.1111C19.7629 16.4447 19.3672 16.935 19.0838 17.5821C18.8003 18.2292 18.6586 19.0222 18.6586 19.9609C18.6586 20.8939 18.8003 21.6824 19.0838 22.3266C19.3672 22.9707 19.7629 23.4596 20.2707 23.7932C20.7785 24.1267 21.3712 24.2935 22.0488 24.2935ZM30.1632 26.5V13.4043H35.3639C36.3222 13.4043 37.1217 13.5492 37.7623 13.8389C38.4029 14.1287 38.8833 14.5262 39.2034 15.0317C39.5235 15.5371 39.6835 16.1155 39.6835 16.7668C39.6835 17.285 39.5808 17.7359 39.3752 18.1195C39.1697 18.5031 38.8901 18.8168 38.5364 19.0605C38.1827 19.3042 37.7806 19.4772 37.3302 19.5795V19.712C37.8226 19.7323 38.2867 19.8721 38.7224 20.1315C39.1581 20.3909 39.5122 20.754 39.7846 21.2207C40.0571 21.6874 40.1933 22.2445 40.1933 22.8921C40.1933 23.58 40.0242 24.1963 39.6861 24.741C39.3479 25.2858 38.8455 25.7151 38.1789 26.0291C37.5122 26.343 36.6854 26.5 35.6984 26.5H30.1632ZM32.8488 24.2925H35.1656C35.9541 24.2925 36.5289 24.1405 36.89 23.8365C37.251 23.5325 37.4315 23.1328 37.4315 22.6372C37.4315 22.2673 37.3424 21.9398 37.164 21.6545C36.9856 21.3692 36.7324 21.1453 36.4043 20.9828C36.0762 20.8202 35.6862 20.739 35.2345 20.739H32.8488V24.2925ZM32.8488 18.9055H34.9627C35.346 18.9055 35.6894 18.837 35.9927 18.6999C36.296 18.5628 36.5353 18.3669 36.7105 18.1122C36.8857 17.8576 36.9733 17.5537 36.9733 17.2007C36.9733 16.7241 36.804 16.3369 36.4654 16.0393C36.1269 15.7416 35.6436 15.5928 35.0155 15.5928H32.8488V18.9055Z" fill="white"/>
<path d="M66.1672 26.1562C65.1386 26.1562 64.214 25.9217 63.3931 25.4526C62.5723 24.9835 61.9238 24.3037 61.4478 23.4133C60.9718 22.5229 60.7337 21.4476 60.7337 20.1875C60.7337 18.9194 60.9718 17.8394 61.4478 16.9476C61.9238 16.0558 62.5723 15.3754 63.3931 14.9065C64.214 14.4376 65.1386 14.2031 66.1672 14.2031C67.1957 14.2031 68.1191 14.4376 68.9374 14.9065C69.7556 15.3754 70.4028 16.0558 70.8791 16.9476C71.3553 17.8394 71.5935 18.9194 71.5935 20.1875C71.5935 21.4504 71.3553 22.5271 70.8791 23.4175C70.4028 24.3079 69.7556 24.987 68.9374 25.4547C68.1191 25.9224 67.1957 26.1562 66.1672 26.1562ZM66.1672 24.0387C66.7699 24.0387 67.2963 23.891 67.7465 23.5957C68.1967 23.3004 68.5471 22.8659 68.7977 22.2921C69.0483 21.7183 69.1735 21.0168 69.1735 20.1875C69.1735 19.3506 69.0483 18.6446 68.7977 18.0694C68.5471 17.4942 68.1967 17.0589 67.7465 16.7636C67.2963 16.4683 66.7699 16.3207 66.1672 16.3207C65.5649 16.3207 65.0381 16.4689 64.5867 16.7654C64.1353 17.0619 63.7836 17.4978 63.5316 18.073C63.2796 18.6482 63.1536 19.353 63.1536 20.1875C63.1536 21.0168 63.2796 21.7177 63.5316 22.2903C63.7836 22.8629 64.1353 23.2974 64.5867 23.5939C65.0381 23.8904 65.5649 24.0387 66.1672 24.0387ZM72.9262 26V17.2656H75.2691V26H72.9262ZM74.097 16.1271C73.7442 16.1271 73.4419 16.0091 73.1902 15.7732C72.9384 15.5373 72.8125 15.2543 72.8125 14.9241C72.8125 14.5871 72.9384 14.302 73.1902 14.0689C73.4419 13.8358 73.7442 13.7192 74.097 13.7192C74.4515 13.7192 74.7548 13.8356 75.0069 14.0684C75.2591 14.3013 75.3852 14.5864 75.3852 14.9238C75.3852 15.2545 75.2591 15.5377 75.0069 15.7735C74.7548 16.0092 74.4515 16.1271 74.097 16.1271ZM79.2051 14.3594V26H76.8622V14.3594H79.2051ZM83.2392 26.1694C82.6843 26.1694 82.1872 26.0715 81.748 25.8759C81.3087 25.6802 80.9633 25.3889 80.7117 25.0019C80.4601 24.6149 80.3344 24.1335 80.3344 23.5578C80.3344 23.0691 80.4235 22.6614 80.6017 22.3348C80.7799 22.0083 81.0239 21.7453 81.3335 21.5459C81.6431 21.3466 81.995 21.1949 82.389 21.0909C82.783 20.9868 83.1958 20.9144 83.6273 20.8736C84.1313 20.8228 84.5382 20.7749 84.848 20.73C85.1579 20.6851 85.3852 20.6149 85.53 20.5193C85.6748 20.4237 85.7472 20.2818 85.7472 20.0936V20.0552C85.7472 19.8059 85.6942 19.595 85.5883 19.4226C85.4824 19.2502 85.3278 19.118 85.1245 19.0262C84.9212 18.9344 84.6712 18.8885 84.3747 18.8885C84.0762 18.8885 83.815 18.9339 83.5913 19.0247C83.3675 19.1155 83.1843 19.2368 83.0416 19.3885C82.8989 19.5403 82.7961 19.7106 82.7333 19.8997L80.5844 19.543C80.7324 19.0342 80.981 18.6027 81.3303 18.2484C81.6796 17.8941 82.1136 17.6234 82.6324 17.4366C83.1512 17.2497 83.7344 17.1562 84.382 17.1562C84.8509 17.1562 85.3067 17.2118 85.7494 17.3229C86.1921 17.434 86.5895 17.6078 86.9414 17.8442C87.2934 18.0807 87.5729 18.3865 87.7797 18.7616C87.9866 19.1367 88.09 19.5894 88.09 20.1198V26H85.8676V24.7872H85.7908C85.6496 25.0578 85.4619 25.297 85.2277 25.5047C84.9935 25.7124 84.7117 25.8751 84.3825 25.9928C84.0532 26.1105 83.6721 26.1694 83.2392 26.1694ZM83.8991 24.5264C84.268 24.5264 84.5921 24.4529 84.8713 24.3061C85.1505 24.1592 85.3691 23.961 85.5271 23.7114C85.6851 23.4618 85.764 23.1839 85.764 22.8775V21.9324C85.6927 21.9804 85.5874 22.0254 85.4481 22.0674C85.3088 22.1095 85.1535 22.1471 84.982 22.1803C84.8106 22.2136 84.6413 22.2424 84.4742 22.2668C84.3071 22.2912 84.1587 22.3127 84.0289 22.3311C83.741 22.37 83.4879 22.436 83.2696 22.5291C83.0512 22.6222 82.8817 22.7467 82.7608 22.9027C82.64 23.0586 82.5796 23.254 82.5796 23.4889C82.5796 23.715 82.6366 23.9051 82.7507 24.059C82.8647 24.2129 83.0206 24.3292 83.2183 24.4081C83.416 24.4869 83.6429 24.5264 83.8991 24.5264ZM89.7409 26V14.3594H94.3638C95.2156 14.3594 95.9263 14.4882 96.4957 14.7457C97.0652 15.0033 97.4921 15.3567 97.7767 15.8059C98.0612 16.2552 98.2035 16.7693 98.2035 17.3483C98.2035 17.8089 98.1121 18.2097 97.9294 18.5507C97.7467 18.8917 97.4982 19.1705 97.1838 19.3871C96.8694 19.6037 96.512 19.7575 96.1116 19.8484V19.9662C96.5493 19.9843 96.9618 20.1086 97.3491 20.3391C97.7364 20.5697 98.0511 20.8924 98.2933 21.3073C98.5355 21.7221 98.6566 22.2173 98.6566 22.793C98.6566 23.4044 98.5063 23.9523 98.2057 24.4365C97.9052 24.9207 97.4586 25.3023 96.866 25.5814C96.2734 25.8605 95.5384 26 94.6611 26H89.7409ZM92.1282 24.0378H94.1875C94.8884 24.0378 95.3993 23.9027 95.7203 23.6325C96.0412 23.3623 96.2017 23.0069 96.2017 22.5664C96.2017 22.2376 96.1224 21.9465 95.9639 21.6929C95.8053 21.4393 95.5802 21.2403 95.2886 21.0958C94.9969 20.9513 94.6503 20.8791 94.2487 20.8791H92.1282V24.0378ZM92.1282 19.2494H94.0072C94.3479 19.2494 94.6531 19.1884 94.9227 19.0666C95.1923 18.9447 95.405 18.7706 95.5607 18.5442C95.7165 18.3179 95.7943 18.0478 95.7943 17.7339C95.7943 17.3103 95.6439 16.9662 95.3429 16.7016C95.042 16.437 94.6124 16.3047 94.0541 16.3047H92.1282V19.2494ZM102.314 26.1694C101.759 26.1694 101.262 26.0715 100.823 25.8759C100.384 25.6802 100.038 25.3889 99.7867 25.0019C99.5351 24.6149 99.4094 24.1335 99.4094 23.5578C99.4094 23.0691 99.4985 22.6614 99.6767 22.3348C99.8549 22.0083 100.099 21.7453 100.408 21.5459C100.718 21.3466 101.07 21.1949 101.464 21.0909C101.858 20.9868 102.271 20.9144 102.702 20.8736C103.206 20.8228 103.613 20.7749 103.923 20.73C104.233 20.6851 104.46 20.6149 104.605 20.5193C104.75 20.4237 104.822 20.2818 104.822 20.0936V20.0552C104.822 19.8059 104.769 19.595 104.663 19.4226C104.557 19.2502 104.403 19.118 104.2 19.0262C103.996 18.9344 103.746 18.8885 103.45 18.8885C103.151 18.8885 102.89 18.9339 102.666 19.0247C102.443 19.1155 102.259 19.2368 102.117 19.3885C101.974 19.5403 101.871 19.7106 101.808 19.8997L99.6594 19.543C99.8074 19.0342 100.056 18.6027 100.405 18.2484C100.755 17.8941 101.189 17.6234 101.707 17.4366C102.226 17.2497 102.809 17.1562 103.457 17.1562C103.926 17.1562 104.382 17.2118 104.824 17.3229C105.267 17.434 105.664 17.6078 106.016 17.8442C106.368 18.0807 106.648 18.3865 106.855 18.7616C107.062 19.1367 107.165 19.5894 107.165 20.1198V26H104.943V24.7872H104.866C104.725 25.0578 104.537 25.297 104.303 25.5047C104.068 25.7124 103.787 25.8751 103.457 25.9928C103.128 26.1105 102.747 26.1694 102.314 26.1694ZM102.974 24.5264C103.343 24.5264 103.667 24.4529 103.946 24.3061C104.226 24.1592 104.444 23.961 104.602 23.7114C104.76 23.4618 104.839 23.1839 104.839 22.8775V21.9324C104.768 21.9804 104.662 22.0254 104.523 22.0674C104.384 22.1095 104.228 22.1471 104.057 22.1803C103.886 22.2136 103.716 22.2424 103.549 22.2668C103.382 22.2912 103.234 22.3127 103.104 22.3311C102.816 22.37 102.563 22.436 102.345 22.5291C102.126 22.6222 101.957 22.7467 101.836 22.9027C101.715 23.0586 101.655 23.254 101.655 23.4889C101.655 23.715 101.712 23.9051 101.826 24.059C101.94 24.2129 102.096 24.3292 102.293 24.4081C102.491 24.4869 102.718 24.5264 102.974 24.5264ZM111.105 14.3594V26H108.762V14.3594H111.105ZM115.139 26.1694C114.584 26.1694 114.087 26.0715 113.648 25.8759C113.209 25.6802 112.863 25.3889 112.612 25.0019C112.36 24.6149 112.234 24.1335 112.234 23.5578C112.234 23.0691 112.323 22.6614 112.502 22.3348C112.68 22.0083 112.924 21.7453 113.233 21.5459C113.543 21.3466 113.895 21.1949 114.289 21.0909C114.683 20.9868 115.096 20.9144 115.527 20.8736C116.031 20.8228 116.438 20.7749 116.748 20.73C117.058 20.6851 117.285 20.6149 117.43 20.5193C117.575 20.4237 117.647 20.2818 117.647 20.0936V20.0552C117.647 19.8059 117.594 19.595 117.488 19.4226C117.382 19.2502 117.228 19.118 117.025 19.0262C116.821 18.9344 116.571 18.8885 116.275 18.8885C115.976 18.8885 115.715 18.9339 115.491 19.0247C115.268 19.1155 115.084 19.2368 114.942 19.3885C114.799 19.5403 114.696 19.7106 114.633 19.8997L112.484 19.543C112.632 19.0342 112.881 18.6027 113.23 18.2484C113.58 17.8941 114.014 17.6234 114.532 17.4366C115.051 17.2497 115.634 17.1562 116.282 17.1562C116.751 17.1562 117.207 17.2118 117.649 17.3229C118.092 17.434 118.489 17.6078 118.841 17.8442C119.193 18.0807 119.473 18.3865 119.68 18.7616C119.887 19.1367 119.99 19.5894 119.99 20.1198V26H117.768V24.7872H117.691C117.55 25.0578 117.362 25.297 117.128 25.5047C116.893 25.7124 116.612 25.8751 116.282 25.9928C115.953 26.1105 115.572 26.1694 115.139 26.1694ZM115.799 24.5264C116.168 24.5264 116.492 24.4529 116.771 24.3061C117.051 24.1592 117.269 23.961 117.427 23.7114C117.585 23.4618 117.664 23.1839 117.664 22.8775V21.9324C117.593 21.9804 117.487 22.0254 117.348 22.0674C117.209 22.1095 117.053 22.1471 116.882 22.1803C116.711 22.2136 116.541 22.2424 116.374 22.2668C116.207 22.2912 116.059 22.3127 115.929 22.3311C115.641 22.37 115.388 22.436 115.17 22.5291C114.951 22.6222 114.782 22.7467 114.661 22.9027C114.54 23.0586 114.48 23.254 114.48 23.4889C114.48 23.715 114.537 23.9051 114.651 24.059C114.765 24.2129 114.921 24.3292 115.118 24.4081C115.316 24.4869 115.543 24.5264 115.799 24.5264ZM123.93 20.9428V26H121.587V17.2656H123.799L123.837 19.4461H123.696C123.925 18.7176 124.273 18.1538 124.74 17.7548C125.207 17.3558 125.809 17.1562 126.547 17.1562C127.152 17.1562 127.68 17.2879 128.129 17.5512C128.579 17.8145 128.928 18.1917 129.177 18.6829C129.426 19.1741 129.55 19.7614 129.55 20.4447V26H127.207V20.853C127.207 20.3105 127.068 19.885 126.788 19.5765C126.508 19.268 126.121 19.1138 125.627 19.1138C125.297 19.1138 125.005 19.186 124.749 19.3303C124.493 19.4746 124.292 19.6826 124.147 19.9542C124.002 20.2258 123.93 20.5553 123.93 20.9428ZM135.053 26.1706C134.177 26.1706 133.42 25.9824 132.781 25.606C132.143 25.2296 131.65 24.7036 131.304 24.0279C130.958 23.3522 130.785 22.5665 130.785 21.6706C130.785 20.7676 130.958 19.9777 131.304 19.3008C131.65 18.6239 132.143 18.0973 132.781 17.7209C133.42 17.3445 134.177 17.1562 135.053 17.1562C135.573 17.1562 136.052 17.2236 136.489 17.3583C136.926 17.493 137.313 17.6857 137.651 17.9364C137.989 18.1871 138.267 18.4918 138.486 18.8503C138.704 19.2089 138.855 19.612 138.938 20.0597L136.76 20.4678C136.711 20.2411 136.638 20.0375 136.54 19.857C136.442 19.6765 136.323 19.5222 136.181 19.394C136.04 19.2658 135.877 19.1682 135.692 19.1011C135.508 19.0341 135.303 19.0005 135.078 19.0005C134.661 19.0005 134.311 19.1128 134.029 19.3373C133.747 19.5618 133.534 19.8737 133.389 20.2728C133.245 20.672 133.173 21.1351 133.173 21.6622C133.173 22.1817 133.245 22.6418 133.389 23.0426C133.534 23.4433 133.747 23.7575 134.029 23.985C134.311 24.2126 134.661 24.3264 135.078 24.3264C135.305 24.3264 135.512 24.2915 135.699 24.2218C135.887 24.1521 136.053 24.0513 136.198 23.9193C136.343 23.7874 136.464 23.6266 136.562 23.4371C136.66 23.2477 136.732 23.0357 136.777 22.8014L138.952 23.2053C138.872 23.6662 138.721 24.0786 138.502 24.4423C138.282 24.8061 138.004 25.1171 137.666 25.3755C137.328 25.6338 136.939 25.8309 136.498 25.9668C136.057 26.1027 135.576 26.1706 135.053 26.1706ZM144.113 26.1706C143.221 26.1706 142.452 25.988 141.807 25.6229C141.161 25.2577 140.665 24.7392 140.319 24.0673C139.972 23.3955 139.799 22.599 139.799 21.6778C139.799 20.7792 139.971 19.9908 140.315 19.3127C140.659 18.6347 141.146 18.1057 141.775 17.7259C142.404 17.3461 143.144 17.1562 143.995 17.1562C144.565 17.1562 145.098 17.2471 145.594 17.4289C146.089 17.6107 146.524 17.8848 146.898 18.2513C147.273 18.6177 147.565 19.0782 147.775 19.6327C147.985 20.1871 148.091 20.8385 148.091 21.5867V22.2444H140.761V20.77H146.949L145.854 21.1653C145.854 20.7105 145.784 20.3153 145.646 19.9797C145.507 19.6441 145.301 19.3837 145.028 19.1986C144.756 19.0135 144.417 18.921 144.012 18.921C143.607 18.921 143.263 19.0147 142.981 19.2022C142.699 19.3897 142.484 19.6441 142.337 19.9653C142.189 20.2866 142.116 20.6518 142.116 21.0611V22.0991C142.116 22.6043 142.2 23.0287 142.369 23.3723C142.538 23.716 142.776 23.9741 143.083 24.1468C143.39 24.3195 143.745 24.4059 144.15 24.4059C144.423 24.4059 144.672 24.367 144.895 24.2891C145.119 24.2112 145.311 24.096 145.472 23.9433C145.633 23.7905 145.756 23.6023 145.84 23.3786L147.958 23.7705C147.817 24.253 147.573 24.6742 147.225 25.0343C146.876 25.3943 146.44 25.6737 145.916 25.8725C145.391 26.0712 144.79 26.1706 144.113 26.1706Z" fill="#111827"/>
</svg>
